<?xml version="1.0" standalone="no"?>
<svg viewBox="0 0 200 200" xmlns="http://www.w3.org/2000/svg">
  <path fill="#08BDBA" d="M45.6,-78.8C59.5,-70.8,71.7,-59.6,79.9,-45.9C88.1,-32.3,92.3,-16.1,89.7,-1.5C87.1,13.1,77.6,26.2,69.7,40.4C61.8,54.7,55.6,70.1,44.2,77.9C32.9,85.8,16.4,86.1,0.2,85.7C-16.1,85.4,-32.1,84.4,-44.4,77.1C-56.7,69.8,-65.2,56.2,-73.7,42.3C-82.3,28.4,-90.8,14.2,-91.1,-0.2C-91.4,-14.6,-83.6,-29.1,-73.3,-40.1C-63.1,-51.1,-50.6,-58.5,-38,-67.2C-25.3,-75.9,-12.7,-86,1.6,-88.7C15.8,-91.4,31.6,-86.7,45.6,-78.8Z" transform="translate(100 100)" />
</svg>
