<?xml version="1.0" standalone="no"?>
<svg viewBox="0 0 200 200" xmlns="http://www.w3.org/2000/svg">
  <path fill="#F1C21B" d="M43,-64.9C56.9,-66.5,70.1,-57.3,72.7,-44.7C75.4,-32,67.5,-16,65.6,-1.1C63.8,13.9,68,27.8,64,38.2C60.1,48.6,48.1,55.6,36.1,56.7C24.1,57.9,12.1,53.1,-1,54.8C-14,56.5,-28.1,64.7,-42.4,64.9C-56.7,65.1,-71.3,57.4,-80.5,45.2C-89.6,33.1,-93.3,16.5,-92.5,0.5C-91.7,-15.6,-86.4,-31.2,-77.1,-43C-67.7,-54.8,-54.2,-62.7,-40.7,-61.3C-27.2,-59.9,-13.6,-49.1,0.5,-50C14.6,-50.8,29.1,-63.3,43,-64.9Z" transform="translate(100 100)" />
</svg>
