<?xml version="1.0" standalone="no"?>
<svg viewBox="0 0 200 200" xmlns="http://www.w3.org/2000/svg">
  <path fill="#FF0066" d="M46.4,-69.6C61.6,-62.5,76.3,-52,80.2,-38.2C84.1,-24.3,77.4,-7.1,74.3,10.3C71.2,27.7,71.8,45.2,63.7,56C55.6,66.7,38.7,70.6,22.4,74.7C6.1,78.8,-9.8,83,-24.7,80.3C-39.5,77.6,-53.4,68,-62.7,55.4C-72,42.8,-76.6,27.2,-75.3,13C-74,-1.3,-66.9,-14.3,-61.8,-29.4C-56.7,-44.4,-53.6,-61.5,-43.6,-71C-33.7,-80.5,-16.8,-82.3,-0.6,-81.4C15.6,-80.5,31.3,-76.7,46.4,-69.6Z" transform="translate(100 100)" />
</svg>
