<?xml version="1.0" standalone="no"?>
<svg viewBox="0 0 200 200" xmlns="http://www.w3.org/2000/svg">
  <path fill="#24A148" d="M37.8,-66.9C50.4,-58.3,62.8,-50.9,68.6,-39.9C74.3,-29,73.3,-14.5,70.2,-1.8C67.1,10.9,61.8,21.8,55.1,31C48.4,40.3,40.2,47.9,30.8,58.8C21.4,69.6,10.7,83.8,-2.8,88.7C-16.3,93.5,-32.5,89,-41.5,77.9C-50.4,66.7,-52.1,48.9,-57.6,34.8C-63.1,20.7,-72.5,10.3,-74.7,-1.2C-76.8,-12.8,-71.7,-25.7,-65,-37.6C-58.3,-49.6,-49.9,-60.8,-38.8,-70.2C-27.7,-79.6,-13.8,-87.3,-0.6,-86.2C12.6,-85.2,25.3,-75.4,37.8,-66.9Z" transform="translate(100 100)" />
</svg>
